# xmcd
#
# Track frame offsets: 
#        150
#        18907
#        39167
#        58360
#        77847
#        101380
#        118637
#        139660
#        161525
#        183310
#        203782
#        224195
#        250137
#        278472
#        295577
#        314042
#
# Disc length: 4459 seconds
#
# Revision: 1
# Processed by: cddbd v1.5.2PL0 Copyright (c) Steve Scherf et al.
# Submitted via: ExactAudioCopy v0.95a5
#
DISCID=e5116910
DTITLE=Kevin McCord and Friends - k-I Cry
DYEAR=1994
DGENRE=R&B
TTITLE0=I Cry
TTITLE1=Morning Through The Night
TTITLE2=Here We Are ''Alone Here Together''
TTITLE3=You Make Me Happy
TTITLE4=Honey
TTITLE5=Something Is Going On
TTITLE6=Never Be The Same
TTITLE7=This Time I'll Be Sweeter
TTITLE8=True Love
TTITLE9=Lookin' Good
TTITLE10=Pretty Face
TTITLE11=I'll Change
TTITLE12=I'm So Into You
TTITLE13=Good Thang
TTITLE14=Mr Groove, Part 2
TTITLE15=Jam ''Let's Hustle''
EXTD=
EXTT0=
EXTT1=
EXTT2=
EXTT3=
EXTT4=
EXTT5=
EXTT6=
EXTT7=
EXTT8=
EXTT9=
EXTT10=
EXTT11=
EXTT12=
EXTT13=
EXTT14=
EXTT15=
PLAYORDER=
